<?xml version="1.0" encoding="UTF-8" standalone="no"?>
<!-- Created with Inkscape (http://www.inkscape.org/) -->

<svg
   width="210mm"
   height="297mm"
   viewBox="0 0 210 297"
   version="1.1"
   id="svg1"
   xml:space="preserve"
   sodipodi:docname="Logo_inkscape.svg"
   inkscape:version="1.3.2 (091e20e, 2023-11-25, custom)"
   xmlns:inkscape="http://www.inkscape.org/namespaces/inkscape"
   xmlns:sodipodi="http://sodipodi.sourceforge.net/DTD/sodipodi-0.dtd"
   xmlns="http://www.w3.org/2000/svg"
   xmlns:svg="http://www.w3.org/2000/svg"><sodipodi:namedview
     id="namedview1"
     pagecolor="#ffffff"
     bordercolor="#000000"
     borderopacity="0.25"
     inkscape:showpageshadow="2"
     inkscape:pageopacity="0.0"
     inkscape:pagecheckerboard="0"
     inkscape:deskcolor="#d1d1d1"
     inkscape:document-units="mm"
     inkscape:zoom="1.4142136"
     inkscape:cx="229.1026"
     inkscape:cy="425.32473"
     inkscape:window-width="2560"
     inkscape:window-height="1369"
     inkscape:window-x="-8"
     inkscape:window-y="-8"
     inkscape:window-maximized="1"
     inkscape:current-layer="layer2" /><defs
     id="defs1"><inkscape:path-effect
       effect="offset"
       id="path-effect9"
       is_visible="true"
       lpeversion="1.2"
       linejoin_type="miter"
       unit="mm"
       offset="-0.75702853"
       miter_limit="4"
       attempt_force_join="false"
       update_on_knot_move="true" /><inkscape:path-effect
       effect="offset"
       id="path-effect8"
       is_visible="true"
       lpeversion="1.2"
       linejoin_type="miter"
       unit="mm"
       offset="-0.8"
       miter_limit="4"
       attempt_force_join="false"
       update_on_knot_move="true" /><inkscape:path-effect
       effect="offset"
       id="path-effect7"
       is_visible="true"
       lpeversion="1.2"
       linejoin_type="miter"
       unit="mm"
       offset="-1.9"
       miter_limit="3.6"
       attempt_force_join="false"
       update_on_knot_move="true" /><inkscape:path-effect
       effect="offset"
       id="path-effect8-8"
       is_visible="true"
       lpeversion="1.2"
       linejoin_type="miter"
       unit="mm"
       offset="-0.8"
       miter_limit="4"
       attempt_force_join="false"
       update_on_knot_move="true" /></defs><g
     inkscape:label="Layer 1"
     inkscape:groupmode="layer"
     id="layer1"
     style="display:none"><path
       style="display:none;fill:none;stroke:#000000;stroke-width:0.264583;stroke-opacity:1"
       id="path1"
       sodipodi:type="arc"
       sodipodi:cx="-90.962807"
       sodipodi:cy="119.95496"
       sodipodi:rx="59.977482"
       sodipodi:ry="59.977482"
       sodipodi:start="1.1012802"
       sodipodi:end="2.5043188"
       sodipodi:arc-type="arc"
       d="M -63.825706,173.44212 A 59.977482,59.977482 0 0 1 -139.16796,155.64196"
       inkscape:label="inferior"
       sodipodi:open="true"
       transform="scale(-1,1)" /><path
       style="display:none;fill:none;stroke:#000000;stroke-width:0.264583;stroke-opacity:1"
       id="path1-7"
       sodipodi:type="arc"
       sodipodi:cx="89.339592"
       sodipodi:cy="122.28245"
       sodipodi:rx="59.977482"
       sodipodi:ry="59.977482"
       sodipodi:start="3.8895558"
       sodipodi:end="0.60829216"
       sodipodi:arc-type="arc"
       d="m 45.371555,81.488943 a 59.977482,59.977482 0 0 1 81.594075,-5.91388 59.977482,59.977482 0 0 1 11.59299,80.982527"
       sodipodi:open="true" /><path
       style="display:inline;fill:none;stroke:#000000;stroke-width:0.22;stroke-dasharray:none;stroke-opacity:1"
       d="m 91.115886,131.23333 c -1.600629,-4.63634 -5.445683,-8.95748 -10.803496,-8.75905 -5.357812,0.19844 -10.332276,5.2226 -8.742598,12.79395 2.621128,12.48396 19.266317,23.72662 19.266317,23.72662 -1.025427,-0.30702 -3.098887,-0.90251 -4.59179,-1.9691 l -1.620573,-1.1578 C 69.777932,145.2615 63.316913,140.68605 57.130047,130.05401 c -3.062852,-5.26346 -4.972663,-10.49089 -5.728651,-15.68013 -0.381276,-2.61718 -0.261263,-7.20213 0.245783,-9.38972 1.78139,-7.685645 6.940275,-13.211514 13.994626,-14.990145 2.153212,-0.5429 6.060729,-0.547054 8.217499,-0.0085 3.110676,0.776405 5.45031,1.929531 8.0808,3.982749 5.375858,3.809103 8.740193,7.624046 11.563834,13.427416 2.71608,5.56212 -3.027061,7.36493 -3.308181,7.66259 -0.132292,0.38034 1.86057,5.0269 2.997397,6.19516 2.232422,-0.19844 7.423266,-0.0107 10.484416,1.40854 -5.656151,-0.91571 -10.288736,2.52615 -12.561684,8.57136 z"
       id="path6"
       sodipodi:nodetypes="csssssscasccscccc"
       inkscape:label="left side heart" /><path
       style="display:inline;fill:none;stroke:#000000;stroke-width:0.22;stroke-dasharray:none;stroke-opacity:1"
       d="m 101.08676,93.284636 c 3.93209,-3.550855 10.41993,-4.53811 15.55951,-3.245093 1.60285,0.403251 4.51827,1.711132 5.82395,2.612674 3.9567,2.732024 6.77484,7.037097 8.00631,12.230693 0.41462,1.74863 0.45696,2.24964 0.45672,5.40497 -2.7e-4,3.88003 -0.21833,5.49708 -1.20758,8.95501 -3.59771,12.57583 -12.72455,22.62008 -29.46539,35.65625 -3.445779,2.68326 -8.06401,3.7715 -8.389368,3.76544 0,0 14.023678,-10.6947 17.067538,-18.30171 2.58069,-6.44948 3.02426,-14.21064 -4.55793,-17.36078 -3.7795,-2.20002 -10.507914,-1.70322 -10.987329,-1.79676 -0.844136,-0.16471 -3.227732,-5.4281 -3.092293,-5.97508 0.11693,-0.65481 7.111797,-2.36594 2.197425,-9.82234 0,0 3.702652,-7.711188 8.588437,-12.123274 z"
       id="path4"
       sodipodi:nodetypes="ssssscssscsccs"
       inkscape:label="right side heart" /><path
       style="display:inline;fill:none;stroke:#000000;stroke-width:0.22;stroke-dasharray:none;stroke-opacity:1"
       d="m 91.115886,131.23333 c -1.600629,-4.63634 -5.445683,-8.95748 -10.803496,-8.75905 -5.357812,0.19844 -10.332276,5.2226 -8.742598,12.79395 2.621128,12.48396 19.266317,23.72662 19.266317,23.72662 -1.025427,-0.30702 -3.098887,-0.90251 -4.59179,-1.9691 l -1.620573,-1.1578 C 69.777932,145.2615 63.316913,140.68605 57.130047,130.05401 c -3.062852,-5.26346 -4.972663,-10.49089 -5.728651,-15.68013 -0.381276,-2.61718 -0.261263,-7.20213 0.245783,-9.38972 1.78139,-7.685645 6.940275,-13.211514 13.994626,-14.990145 2.153212,-0.5429 6.060729,-0.547054 8.217499,-0.0085 3.110676,0.776405 5.45031,1.929531 8.0808,3.982749 5.375858,3.809103 8.740193,7.624046 11.563834,13.427416 2.71608,5.56212 -3.027061,7.36493 -3.308181,7.66259 -0.132292,0.38034 1.86057,5.0269 2.997397,6.19516 2.232422,-0.19844 7.423266,-0.0107 10.484416,1.40854 -5.656151,-0.91571 -10.288736,2.52615 -12.561684,8.57136 z"
       id="path6-5"
       sodipodi:nodetypes="csssssscasccscccc"
       inkscape:label="left side heart" /><path
       style="display:inline;fill:none;stroke:#000000;stroke-width:0.22;stroke-dasharray:none;stroke-opacity:1"
       d="m 101.08676,93.284636 c 3.93209,-3.550855 10.41993,-4.53811 15.55951,-3.245093 1.60285,0.403251 4.51827,1.711132 5.82395,2.612674 3.9567,2.732024 6.77484,7.037097 8.00631,12.230693 0.41462,1.74863 0.45696,2.24964 0.45672,5.40497 -2.7e-4,3.88003 -0.21833,5.49708 -1.20758,8.95501 -3.59771,12.57583 -12.72455,22.62008 -29.46539,35.65625 -3.445779,2.68326 -8.06401,3.7715 -8.389368,3.76544 0,0 14.023678,-10.6947 17.067538,-18.30171 2.58069,-6.44948 3.02426,-14.21064 -4.55793,-17.36078 -3.7795,-2.20002 -10.507914,-1.70322 -10.987329,-1.79676 -0.844136,-0.16471 -3.227732,-5.4281 -3.092293,-5.97508 0.11693,-0.65481 7.111797,-2.36594 2.197425,-9.82234 0,0 3.702652,-7.711188 8.588437,-12.123274 z"
       id="path4-7"
       sodipodi:nodetypes="ssssscssscsccs"
       inkscape:label="right side heart" /><path
       style="display:none;fill:none;stroke:#000000;stroke-width:0.305477;stroke-dasharray:none;stroke-opacity:1"
       d="m 89.628876,158.14533 c -7.250196,-5.31481 -12.241537,-10.42961 -15.28983,-15.66805 -1.509077,-2.59333 -2.450048,-5.1689 -2.822526,-7.72565 -0.187857,-1.2895 -0.128725,-3.54852 0.121098,-4.62636 0.877697,-3.78674 3.4195,-6.50935 6.895204,-7.38569 1.060894,-0.26749 2.986143,-0.26954 4.048792,-0.004 1.532641,0.38253 2.685388,0.95068 3.98144,1.9623 1.47682,1.15273 2.662593,2.70126 3.771285,4.925 l 0.753143,1.51063 0.324068,-0.75933 c 0.42772,-1.00221 1.278697,-2.49878 1.886103,-3.31699 0.617482,-0.83179 1.953855,-2.16672 2.69903,-2.69613 1.160857,-0.82471 2.444341,-1.38369 3.754147,-1.65686 0.6549,-0.13659 1.31639,-0.20173 1.97241,-0.1929 0.65603,0.009 1.3066,0.0916 1.93967,0.25089 0.78973,0.19868 2.22617,0.84309 2.86948,1.28728 1.94949,1.34608 3.338,3.4672 3.94474,6.02611 0.20429,0.86155 0.22515,1.10841 0.22503,2.66305 -1.3e-4,1.91171 -0.10758,2.70843 -0.59499,4.41216 -1.77259,6.19616 -7.03529,12.82341 -15.283567,19.24637 -1.697751,1.32206 -3.619408,2.68626 -3.779714,2.68328 -0.0789,-0.002 -0.715661,-0.42213 -1.415013,-0.93479 z"
       id="path7"
       inkscape:label="heart 2"
       sodipodi:nodetypes="csssscsscsscssssssssccc" /><path
       style="display:inline;fill:none;stroke:#000000;stroke-width:0.280271;stroke-dasharray:none;stroke-opacity:1"
       d="m 89.746386,157.24288 c -6.651961,-4.87627 -11.231452,-9.56903 -14.028221,-14.37523 -1.384559,-2.37935 -2.247888,-4.7424 -2.589632,-7.08819 -0.172356,-1.1831 -0.118103,-3.25572 0.111106,-4.24462 0.805276,-3.47429 3.137347,-5.97225 6.326261,-6.77628 0.973357,-0.24542 2.739748,-0.2473 3.714714,-0.004 1.406179,0.35097 2.463809,0.87224 3.65292,1.80039 1.354964,1.05761 2.442895,2.47837 3.460106,4.51862 l 0.690999,1.38598 0.297328,-0.69667 c 0.392427,-0.91952 1.173188,-2.2926 1.730475,-3.0433 0.566532,-0.76315 1.792637,-1.98793 2.476325,-2.47366 2.130142,-1.51332 4.710323,-2.05144 7.033663,-1.46694 0.72457,0.18229 2.04248,0.77352 2.63271,1.18106 1.78863,1.23501 3.06257,3.18111 3.61925,5.52888 0.18743,0.79046 0.20657,1.01695 0.20646,2.44331 -1.2e-4,1.75397 -0.0987,2.48495 -0.54589,4.0481 -1.62633,5.6849 -6.45479,11.76531 -14.022479,17.6583 -1.557664,1.21297 -3.32076,2.46461 -3.467838,2.46187 -0.07239,-0.002 -0.65661,-0.3873 -1.298257,-0.85766 z"
       id="path4-9"
       inkscape:label="heart" /><path
       style="fill:none;stroke:#000000;stroke-width:0.629766;stroke-dasharray:none;stroke-opacity:1"
       id="path5"
       sodipodi:type="arc"
       sodipodi:cx="71.660561"
       sodipodi:cy="110.4632"
       sodipodi:rx="8.1968889"
       sodipodi:ry="8.1968889"
       sodipodi:start="3.9176355"
       sodipodi:end="3.9161128"
       sodipodi:open="true"
       sodipodi:arc-type="chord"
       d="m 65.810515,104.7216 a 8.1968889,8.1968889 0 0 1 11.589417,-0.11063 8.1968889,8.1968889 0 0 1 0.115044,11.58938 8.1968889,8.1968889 0 0 1 -11.58933,0.11945 8.1968889,8.1968889 0 0 1 -0.123867,-11.58928 z" /><path
       style="fill:none;stroke:#000000;stroke-width:0.629766;stroke-dasharray:none;stroke-opacity:1"
       id="path5-8"
       sodipodi:type="arc"
       sodipodi:cx="111.14386"
       sodipodi:cy="110.50736"
       sodipodi:rx="8.1968889"
       sodipodi:ry="8.1968889"
       sodipodi:start="3.9176355"
       sodipodi:end="3.9161128"
       sodipodi:open="true"
       sodipodi:arc-type="chord"
       d="m 105.29381,104.76576 a 8.1968889,8.1968889 0 0 1 11.58942,-0.11063 8.1968889,8.1968889 0 0 1 0.11504,11.58938 8.1968889,8.1968889 0 0 1 -11.58932,0.11945 8.1968889,8.1968889 0 0 1 -0.12387,-11.58928 z" /></g><g
     inkscape:groupmode="layer"
     id="layer3"
     inkscape:label="Text"><path
       style="font-size:25.4px;line-height:0;font-family:Arial;-inkscape-font-specification:Arial;letter-spacing:0px;word-spacing:0px;baseline-shift:baseline;fill:none;stroke:#000000;stroke-width:0.264582"
       d="m 77.017608,183.56854 -0.73924,2.01424 -11.281996,-4.14062 q 0.254463,-0.76534 0.778635,-1.36564 0.853821,-0.99455 2.207111,-1.76615 1.364934,-0.76734 3.696351,-1.5763 3.62018,-1.26075 5.085314,-2.22912 1.469408,-0.98 1.90526,-2.16758 0.457218,-1.2458 -0.127354,-2.42477 -0.568656,-1.18633 -2.000736,-1.71192 -1.51358,-0.5555 -2.755028,0.0194 -1.241447,0.57485 -1.842772,2.17731 L 69.8704,169.38566 q 1.105739,-2.32891 3.010952,-3.05649 1.909487,-0.73922 4.342858,0.15385 2.456659,0.90162 3.388791,2.78944 0.932131,1.88781 0.192892,3.90205 -0.376029,1.02458 -1.158385,1.8604 -0.782356,0.83583 -2.16203,1.57133 -1.36803,0.73977 -4.32754,1.82024 -2.467291,0.89121 -3.212245,1.26515 -0.740682,0.3623 -1.29935,0.80462 z m 4.459006,-5.86655 q 0.37388,-3.20286 1.253973,-5.073 0.893849,-1.88102 2.310974,-2.78944 1.429445,-0.90698 3.400427,-0.6769 1.4536,0.16969 2.480935,0.88897 1.028773,0.70696 1.613834,1.89905 0.5865,1.17976 0.807513,2.81633 0.222451,1.62425 -0.09103,4.30972 -0.371003,3.17823 -1.252533,5.06069 -0.880092,1.87013 -2.310975,2.78943 -1.417125,0.90842 -3.400427,0.6769 -2.611552,-0.30486 -3.883532,-2.3513 -1.523048,-2.46283 -0.929155,-7.55045 z m 2.278949,0.26603 q -0.519118,4.44705 0.343088,6.04609 0.875963,1.58815 2.403474,1.76646 1.527512,0.17832 2.734838,-1.17913 1.219644,-1.35602 1.737325,-5.79075 0.520556,-4.45937 -0.355406,-6.04752 -0.863645,-1.58672 -2.415793,-1.76791 -1.527512,-0.17831 -2.590082,1.00874 -1.338325,1.51697 -1.857444,5.96402 z m 24.011597,6.50046 0.25543,2.13035 -11.932356,1.43071 q -0.120598,-0.79747 0.07404,-1.57028 0.309452,-1.27373 1.165152,-2.57548 0.868014,-1.30323 2.578349,-3.08219 2.653675,-2.76645 3.519745,-4.29428 0.86459,-1.54015 0.71399,-2.7962 -0.15798,-1.31761 -1.21395,-2.10285 -1.04513,-0.79904 -2.55976,-0.61743 -1.600834,0.19194 -2.446169,1.26761 -0.845334,1.07567 -0.653896,2.77649 l -2.306159,0.0392 q -0.07166,-2.57708 1.295826,-4.09009 1.366013,-1.52532 3.939658,-1.83391 2.59827,-0.31153 4.28565,0.94762 1.68738,1.25914 1.94281,3.38949 0.12993,1.08365 -0.18788,2.1835 -0.31781,1.09986 -1.21339,2.38141 -0.88329,1.28008 -3.03008,3.58603 -1.79408,1.91392 -2.288186,2.58523 -0.495577,0.65899 -0.792653,1.30668 z m 2.77171,-3.30885 2.12903,-1.00056 q 0.83892,1.51439 2.02442,2.00094 1.19282,0.47061 2.44881,0.005 1.51184,-0.56023 2.13617,-2.08778 0.62434,-1.52754 -0.0738,-3.41153 -0.66364,-1.79096 -2.05895,-2.45107 -1.38367,-0.66442 -3.01181,-0.0611 -1.01177,0.37492 -1.65346,1.14176 -0.646,0.75521 -0.83968,1.66025 l -2.06021,0.47245 -1.59358,-9.36901 8.47792,-3.14157 0.74122,2.00029 -6.80327,2.52101 0.77917,4.9225 q 1.13863,-1.63877 2.82492,-2.26364 2.23287,-0.82741 4.34111,0.15048 2.10825,0.97789 3.00891,3.40847 0.85758,2.31429 0.13341,4.50047 -0.87268,2.67769 -3.71029,3.72919 -2.3259,0.86189 -4.2855,0.10667 -1.94798,-0.75952 -2.95455,-2.83342 z"
       id="text1"
       aria-label="2025"
       inkscape:export-filename="logoV2.svg"
       inkscape:export-xdpi="96"
       inkscape:export-ydpi="96" /><path
       d="m 62.791325,80.131006 -8.898213,7.570632 -11.966742,-14.065223 1.870325,-1.591279 10.552272,12.402711 7.027888,-5.979352 z m 7.704659,-3.55897 -6.518825,3.269038 -0.845057,-1.685139 2.161855,-1.084119 -6.588111,-13.137429 -2.161856,1.084119 -0.845057,-1.685138 6.518825,-3.269038 0.845058,1.685139 -2.161856,1.084119 6.588112,13.137429 2.161855,-1.084119 z M 87.259962,72.5142 84.272771,73.070639 72.639577,58.433525 75.664784,74.674089 73.40915,75.094257 70.027368,56.939452 73.770501,56.242201 84.384297,69.605784 81.622546,54.779563 83.87818,54.359395 Z m 20.188108,-6.497195 q -0.42727,2.481156 -1.86235,4.310535 -1.42286,1.831484 -3.41109,2.634326 -1.37929,0.555328 -2.978253,0.632356 -1.586738,0.07913 -4.092339,-0.352344 L 90.5084,72.450486 93.642394,54.25127 l 4.546749,0.782972 q 2.664497,0.458839 4.161617,1.119367 1.51144,0.65041 2.48348,1.509969 1.65786,1.481056 2.36421,3.591107 0.70636,2.110051 0.24962,4.76232 z m -2.52373,-0.472353 q 0.36833,-2.138927 -0.12466,-3.734011 -0.493,-1.595084 -1.82669,-2.693109 -0.97033,-0.796341 -2.14036,-1.236939 -1.167931,-0.452821 -2.854628,-0.743278 l -2.273374,-0.391487 -2.418375,14.043586 2.273375,0.391487 q 1.747809,0.300981 3.087588,0.267415 1.352001,-0.03146 2.559774,-0.540817 1.50613,-0.634164 2.42251,-1.936206 0.92861,-1.299936 1.29484,-3.426641 z m 23.18564,3.38662 q 0.34105,1.641838 -0.0609,3.493013 -0.39128,1.857482 -1.55181,3.822385 -1.16052,1.964903 -2.61532,3.20865 -1.43781,1.239376 -3.00002,1.713879 -1.61948,0.498297 -3.28668,0.248208 -1.65652,-0.243781 -3.37581,-1.259243 -1.67657,-0.990232 -2.72617,-2.359161 -1.03891,-1.362622 -1.37559,-2.987474 -0.33668,-1.624853 0.0483,-3.471656 0.39565,-1.840496 1.56249,-3.816078 1.14791,-1.943545 2.56873,-3.178549 1.42713,-1.245683 3.05922,-1.765338 1.55785,-0.491489 3.27407,-0.22685 1.7269,0.270946 3.37144,1.242257 1.70861,1.009154 2.73054,2.376147 1.03891,1.362622 1.37753,2.95981 z m -3.81256,6.016112 q 1.82909,-3.096857 1.43107,-5.59337 -0.3917,-2.507191 -2.79444,-3.926314 -2.42409,-1.431737 -4.80888,-0.564421 -2.3678,0.862944 -4.19689,3.959802 -1.84801,3.128894 -1.42233,5.627342 0.43198,2.487769 2.80268,3.88797 2.3707,1.400202 4.74724,0.571229 2.39353,-0.833343 4.24155,-3.962238 z m 11.65007,18.03291 q -0.83029,0.689105 -1.96625,0.971082 -1.12803,0.291521 -2.26932,0.06216 -1.24444,-0.256558 -2.43553,-0.992574 -1.18317,-0.726472 -2.37128,-2.158008 -1.27525,-1.536516 -2.01071,-3.00526 -0.72755,-1.4592 -1.21794,-3.19582 l 2.3668,-1.964346 0.1109,0.13361 q -0.002,1.822975 0.68349,3.639382 0.68555,1.816408 1.71525,3.057073 1.45742,1.756018 2.92384,2.182931 1.47434,0.436456 2.57185,-0.47443 0.94482,-0.784154 1.00525,-1.624065 0.0683,-0.830367 -0.46767,-1.98112 -0.40318,-0.874183 -0.97614,-1.816988 -0.56504,-0.933261 -1.1504,-2.026946 -1.16748,-2.2223 -0.96397,-3.938479 0.22097,-1.714556 1.77657,-3.005638 1.78465,-1.481181 4.17182,-0.915865 2.3967,0.557395 4.32145,2.876484 1.24355,1.498342 1.99486,2.986173 0.75132,1.487831 1.13139,2.800245 l -2.23319,1.853455 -0.11089,-0.13361 q 0.0139,-1.381498 -0.63857,-3.08033 -0.63497,-1.69721 -1.78348,-3.081028 -1.2594,-1.517429 -2.65758,-1.920386 -1.39027,-0.393414 -2.3828,0.430344 -0.88756,0.73663 -1.01317,1.614521 -0.12561,0.877892 0.56558,2.254445 0.37331,0.72168 1.11709,2.006237 0.74378,1.284557 1.19287,2.233466 0.89492,1.932746 0.71089,3.439353 -0.18404,1.506608 -1.71101,2.773928 z"
       id="text1-1"
       style="font-size:25.4px;letter-spacing:1.98702px;fill:none;stroke:#000000;stroke-width:0.264583"
       aria-label="LINDOS" /></g><g
     inkscape:groupmode="layer"
     id="layer2"
     inkscape:label="Second Heart iteration"
     transform="translate(1.6317993,1.0583333)"><path
       style="display:inline;fill:none;stroke:#000000;stroke-width:0.352183;stroke-dasharray:none;stroke-opacity:1"
       d="m 90.116657,159.34483 c -8.35872,-6.12743 -14.11324,-12.02426 -17.62758,-18.06365 -1.73982,-2.98984 -2.82466,-5.9592 -3.25411,-8.90688 -0.21655,-1.48665 -0.14829,-4.09108 0.1396,-5.3337 1.0119,-4.36574 3.94233,-7.50461 7.94945,-8.51494 1.2231,-0.30838 3.44271,-0.31075 4.66782,-0.005 1.76698,0.44101 3.09598,1.09605 4.5902,2.26236 1.70261,1.32895 3.0697,3.11425 4.3479,5.67799 l 0.8683,1.74159 0.37362,-0.87542 c 0.4931,-1.15544 1.47421,-2.88084 2.17448,-3.82415 0.71188,-0.95896 2.25258,-2.49799 3.11171,-3.10835 2.676703,-1.9016 5.918913,-2.57779 8.838363,-1.84332 0.91048,0.22905 2.56654,0.97198 3.30821,1.48408 2.24754,1.55191 3.84835,3.99733 4.54787,6.9475 0.23554,0.99328 0.25958,1.27787 0.25944,3.07019 -1.6e-4,2.20403 -0.12398,3.12256 -0.68595,5.08679 -2.04362,7.14352 -8.11098,14.78406 -17.620403,22.18905 -1.9573,1.52421 -4.17278,3.09699 -4.35761,3.09354 -0.0908,-10e-4 -0.82507,-0.48666 -1.63135,-1.07771 z"
       id="path4-9-4-1"
       inkscape:label="small_heart_outline"
       sodipodi:nodetypes="csscsssscssssssscsccc" /><path
       style="display:inline;fill:#00ffff;stroke:#000000;stroke-width:0.325652;stroke-dasharray:none;stroke-opacity:1"
       d="m 162.125,232.73242 c 0.64661,0.009 1.28772,0.0919 1.9082,0.24805 0.76589,0.19267 2.21468,0.84267 2.83008,1.26758 1.92053,1.32611 3.31085,3.43479 3.92188,6.01172 0.21119,0.89065 0.22278,1.02802 0.22265,2.67578 -1.3e-4,1.9985 -0.10227,2.73729 -0.60937,4.50976 -1.83326,6.40819 -7.3173,13.35895 -16.04883,20.15821 -1.41198,1.09955 -2.93861,2.19975 -3.59766,2.61523 -0.26848,-0.17212 -0.66415,-0.44537 -1.0957,-0.76172 -7.68291,-5.63202 -12.92103,-11.01443 -16.10742,-16.49023 -1.57049,-2.69884 -2.5396,-5.36248 -2.92188,-7.98633 -0.19032,-1.30661 -0.12746,-3.61586 0.11719,-4.67188 0.87887,-3.79181 3.42315,-6.4896 6.8418,-7.35156 1.03418,-0.26075 2.93885,-0.26401 3.97461,-0.006 1.5169,0.3786 2.68847,0.95486 3.98242,1.96485 1.46547,1.14385 2.67703,2.71075 3.82422,5.01171 l 1.47851,2.96289 0.94141,-2.19921 c 0.4395,-1.02984 1.31063,-2.56063 1.92969,-3.39454 0.62096,-0.83648 1.99155,-2.20268 2.7207,-2.7207 1.74304,-1.2383 3.74509,-1.86989 5.6875,-1.84375 z"
       id="path4-9-4-1-8"
       inkscape:label="small_heart"
       inkscape:path-effect="#path-effect9"
       inkscape:original-d="m 149.24243,270.02125 c -7.72904,-5.66584 -13.05006,-11.11845 -16.29966,-16.70288 -1.60876,-2.76461 -2.61187,-5.51028 -3.00897,-8.2359 -0.20024,-1.37466 -0.13712,-3.78289 0.12908,-4.9319 0.93567,-4.03686 3.64535,-6.93928 7.3506,-7.8735 1.13096,-0.28515 3.18337,-0.28734 4.31619,-0.005 1.63387,0.40779 2.86275,1.01348 4.24441,2.09193 1.57435,1.22884 2.83845,2.87965 4.02036,5.25026 l 0.80289,1.61039 0.34547,-0.80947 c 0.45596,-1.0684 1.36316,-2.66382 2.01068,-3.53607 0.65825,-0.88672 2.08288,-2.30981 2.87729,-2.87419 2.47506,-1.75835 5.47303,-2.3836 8.17255,-1.70446 0.84189,0.21179 2.3732,0.89876 3.059,1.37228 2.07823,1.435 3.55844,3.6962 4.20527,6.42413 0.21779,0.91845 0.24002,1.18161 0.23989,2.83891 -1.4e-4,2.03799 -0.11464,2.88733 -0.63427,4.70359 -1.88967,6.60538 -7.49997,13.67034 -16.29302,20.5175 -1.80985,1.40939 -3.85844,2.86369 -4.02934,2.8605 -0.084,-0.001 -0.76292,-0.45 -1.50846,-0.99653 z"
       transform="matrix(1.0814693,0,0,1.0814693,-71.284451,-132.67489)" /><path
       style="display:inline;fill:none;stroke:#000000;stroke-width:0.319;stroke-dasharray:none;stroke-opacity:1"
       d="m 88.872727,160.53141 c -14.6915,-10.7697 -24.80575,-21.13411 -30.98267,-31.74907 -3.05794,-5.25503 -4.96469,-10.47405 -5.71947,-15.65494 -0.38066,-2.613 -0.26084,-7.19059 0.2454,-9.37466 1.77853,-7.673306 6.92913,-13.190286 13.97214,-14.966056 2.14976,-0.54203 6.05101,-0.54619 8.2043,-0.009 3.10568,0.77514 5.44156,1.92642 8.06782,3.97634 2.99258,2.33583 5.39538,5.47371 7.64199,9.979796 l 1.52615,3.06107 0.65668,-1.53865 c 0.86669,-2.03085 2.5911,-5.063426 3.8219,-6.721426 1.25124,-1.6855 3.959223,-4.39054 5.469213,-5.46331 4.70462,-3.34231 10.40321,-4.53081 15.53452,-3.23989 1.60029,0.40261 4.51101,1.70839 5.81459,2.60848 3.95035,2.72765 6.76399,7.0258 7.99347,12.211066 0.41395,1.7458 0.45622,2.24603 0.45598,5.39628 -2.6e-4,3.87382 -0.21799,5.48826 -1.20564,8.94062 -3.59192,12.55565 -14.25604,25.98483 -30.970013,39.00005 -3.44023,2.67897 -7.3342,5.44333 -7.65906,5.43728 -0.1599,-0.004 -1.45018,-0.85539 -2.8673,-1.89423 z"
       id="path4-9-4"
       inkscape:label="big_heart_outline" /><path
       style="font-variation-settings:normal;display:none;opacity:1;vector-effect:none;fill:none;fill-opacity:1;stroke:#000000;stroke-width:0.319;stroke-linecap:butt;stroke-linejoin:miter;stroke-miterlimit:4;stroke-dasharray:none;stroke-dashoffset:0;stroke-opacity:1;-inkscape-stroke:none;stop-color:#000000;stop-opacity:1"
       d="m 98.907745,156.35677 c -2.74404,2.13683 -5.76278,4.31634 -6.99609,5.08203 -0.0576,0.0358 -0.11069,0.0675 -0.1582,0.0957 -0.14258,-0.0853 -0.31099,-0.18914 -0.53321,-0.33594 -0.50824,-0.33573 -1.17145,-0.79818 -1.87304,-1.3125 -14.6388,-10.73106 -24.65904,-21.01512 -30.76368,-31.50586 -3.01422,-5.17989 -4.88325,-10.30259 -5.62109,-15.36718 -0.36931,-2.53513 -0.24725,-7.00219 0.23438,-9.08008 1.71364,-7.393356 6.67336,-12.677946 13.38867,-14.371086 2.03888,-0.51408 5.77165,-0.51744 7.81445,-0.008 2.97241,0.74188 5.24387,1.85868 7.76953,3.83008 2.86857,2.23903 5.21132,5.28109 7.41797,9.707026 l 2.29883,4.60938 1.33594,-3.12891 c 0.84793,-1.98691 2.53031,-4.946456 3.72851,-6.560546 19.332645,-26.04231 64.278175,9.816036 1.95703,58.345706 z"
       id="path4-9-4-0"
       inkscape:label="big_heart"
       sodipodi:nodetypes="sscscsssscscccss" /><path
       style="font-variation-settings:normal;display:inline;vector-effect:none;fill:#ffff00;fill-opacity:1;stroke:#000000;stroke-width:0.319;stroke-linecap:butt;stroke-linejoin:miter;stroke-miterlimit:4;stroke-dasharray:none;stroke-dashoffset:0;stroke-opacity:1;-inkscape-stroke:none;stop-color:#000000"
       d="m 91.886257,107.70035 c -0.39495,2.27534 -7.35169,3.70312 -4.96859,7.48093 2.3831,3.77782 7.47117,-3.95986 10.25486,-0.53806 2.78369,3.42181 -7.93023,3.80655 -5.35261,13.54748 l -0.88997,-1.72969 c -1.2782,-2.56374 -2.64529,-4.34904 -4.3479,-5.67799 -1.49422,-1.16631 -2.82322,-1.82135 -4.5902,-2.26236 -1.22511,-0.30575 -3.44472,-0.30338 -4.66782,0.005 -4.00712,1.01033 -6.93755,4.1492 -7.94945,8.51494 -0.28789,1.24262 -0.35615,3.84705 -0.1396,5.3337 0.42945,2.94768 1.51429,5.91704 3.25411,8.90688 3.51434,6.03939 9.26886,11.93623 17.62758,18.06366 l -4e-5,-3e-5 c 0.80628,0.59105 1.63158,1.07771 1.63158,1.07771 l 0.005,1.11199 c -0.14258,-0.0853 -0.31099,-0.18914 -0.53321,-0.33594 -0.50824,-0.33573 -1.17145,-0.79818 -1.87304,-1.3125 -14.6388,-10.73106 -24.65904,-21.01512 -30.76368,-31.50586 -3.01422,-5.17989 -4.88325,-10.30259 -5.62109,-15.36718 -0.36931,-2.53513 -0.24725,-7.00219 0.23438,-9.08008 1.71364,-7.393356 6.67336,-12.677946 13.38867,-14.371086 2.03888,-0.51408 5.77165,-0.51744 7.81445,-0.008 2.97241,0.74188 5.24387,1.85868 7.76953,3.83008 2.86857,2.23903 5.21132,5.28109 7.41797,9.707026 l 2.29883,4.60938"
       id="path4-9-4-0-6"
       inkscape:label="big_heart_left"
       sodipodi:nodetypes="cscsscscscccsccccsscssssc" /><path
       style="font-variation-settings:normal;display:inline;vector-effect:none;fill:#00ffff;fill-opacity:1;stroke:#000000;stroke-width:0.319;stroke-linecap:butt;stroke-linejoin:miter;stroke-miterlimit:4;stroke-dasharray:none;stroke-dashoffset:0;stroke-opacity:1;-inkscape-stroke:none;stop-color:#000000"
       d="m 91.753447,161.53451 c 1.6e-4,0.0329 2.80788,-1.7931 7.15429,-5.17773 16.643653,-12.96046 27.165933,-26.25961 30.693363,-38.58985 0.97325,-3.40202 1.17357,-4.88976 1.17383,-8.71875 2.4e-4,-3.13973 -0.0274,-3.49777 -0.43359,-5.21093 -1.18852,-5.012496 -3.89951,-9.134876 -7.66993,-11.738286 -1.22343,-0.84475 -4.0417,-2.11154 -5.55468,-2.49218 -1.22041,-0.30703 -2.47682,-0.46532 -3.7461,-0.48242 v -1.8e-4 c -3.81034,-0.0513 -7.73218,1.18508 -11.13086,3.5996 -1.43524,1.01968 -4.080363,3.65893 -5.289063,5.28711 -1.1982,1.61409 -2.88058,4.573636 -3.72851,6.560546 l -1.33594,3.12891 c -0.39495,2.27534 -7.35169,3.70312 -4.96859,7.48093 2.3831,3.77782 7.47117,-3.95986 10.25486,-0.53806 2.78369,3.42181 -7.93023,3.80655 -5.33095,13.53558 l 0.33028,-0.85162 c 0.4931,-1.15544 1.47421,-2.88084 2.17448,-3.82415 0.71188,-0.95896 2.25258,-2.49799 3.11171,-3.10835 2.676703,-1.9016 5.918913,-2.57779 8.838363,-1.84332 0.91048,0.22905 2.56654,0.97198 3.30821,1.48408 2.24754,1.55191 3.84835,3.99733 4.54787,6.9475 0.23554,0.99328 0.25958,1.27787 0.25944,3.07019 -1.6e-4,2.20403 -0.12398,3.12256 -0.68595,5.08679 -2.04362,7.14352 -8.11098,14.78406 -17.620403,22.18905 -1.9573,1.52421 -4.35761,3.09354 -4.35761,3.09354 z"
       id="path4-9-4-0-4"
       inkscape:label="big_heart_right"
       sodipodi:nodetypes="cccsssssssccczzcssssssscscc" /><path
       style="display:inline;fill:#ffff00;stroke:#000000;stroke-width:0.33;stroke-dasharray:none;stroke-opacity:1"
       id="path5-8-9-4"
       sodipodi:type="arc"
       sodipodi:cx="112.47439"
       sodipodi:cy="106.92646"
       sodipodi:rx="8.1968889"
       sodipodi:ry="8.1968889"
       sodipodi:start="3.9176355"
       sodipodi:end="3.9161128"
       sodipodi:open="true"
       sodipodi:arc-type="chord"
       d="m 106.62434,101.18486 a 8.1968889,8.1968889 0 0 1 11.58942,-0.11063 8.1968889,8.1968889 0 0 1 0.11504,11.58937 8.1968889,8.1968889 0 0 1 -11.58933,0.11946 8.1968889,8.1968889 0 0 1 -0.12386,-11.58928 z"
       inkscape:label="right circle" /><path
       style="display:inline;fill:#00ffff;stroke:#000000;stroke-width:0.33;stroke-dasharray:none;stroke-opacity:1"
       id="path5-8-9"
       sodipodi:type="arc"
       sodipodi:cx="72.142113"
       sodipodi:cy="106.92646"
       sodipodi:rx="8.1968889"
       sodipodi:ry="8.1968889"
       sodipodi:start="3.9176355"
       sodipodi:end="3.9161128"
       sodipodi:open="true"
       sodipodi:arc-type="chord"
       d="m 66.292067,101.18486 a 8.1968889,8.1968889 0 0 1 11.589417,-0.11063 8.1968889,8.1968889 0 0 1 0.115044,11.58937 8.1968889,8.1968889 0 0 1 -11.589329,0.11946 8.1968889,8.1968889 0 0 1 -0.123868,-11.58928 z"
       inkscape:label="left circle" /></g></svg>
