<?xml version="1.0" encoding="UTF-8" standalone="no"?>
<!-- Created with Inkscape (http://www.inkscape.org/) -->

<svg
   width="103.30303mm"
   height="134.07771mm"
   viewBox="0 0 103.30303 134.07771"
   version="1.1"
   id="svg1"
   xml:space="preserve"
   sodipodi:docname="Logo_inkscape.svg"
   inkscape:version="1.3.2 (091e20e, 2023-11-25, custom)"
   xmlns:inkscape="http://www.inkscape.org/namespaces/inkscape"
   xmlns:sodipodi="http://sodipodi.sourceforge.net/DTD/sodipodi-0.dtd"
   xmlns="http://www.w3.org/2000/svg"
   xmlns:svg="http://www.w3.org/2000/svg"><sodipodi:namedview
     id="namedview1"
     pagecolor="#ffffff"
     bordercolor="#000000"
     borderopacity="0.25"
     inkscape:showpageshadow="2"
     inkscape:pageopacity="0.0"
     inkscape:pagecheckerboard="0"
     inkscape:deskcolor="#d1d1d1"
     inkscape:document-units="mm"
     inkscape:zoom="1.4142136"
     inkscape:cx="254.55844"
     inkscape:cy="457.14453"
     inkscape:window-width="2560"
     inkscape:window-height="1369"
     inkscape:window-x="-8"
     inkscape:window-y="-8"
     inkscape:window-maximized="1"
     inkscape:current-layer="layer1" /><defs
     id="defs1" /><g
     inkscape:label="Layer 1"
     inkscape:groupmode="layer"
     id="layer1"
     transform="translate(-41.739884,-54.098448)"><path
       style="font-size:25.4px;line-height:0;font-family:Arial;-inkscape-font-specification:Arial;letter-spacing:0px;word-spacing:0px;baseline-shift:baseline;fill:none;stroke:#000000;stroke-width:0.264583"
       d="m 73.713024,183.56854 -0.739243,2.01424 -11.282045,-4.14062 q 0.254464,-0.76534 0.778638,-1.36564 0.853825,-0.99455 2.207121,-1.76615 1.36494,-0.76734 3.696367,-1.5763 3.620195,-1.26075 5.085336,-2.22912 1.469414,-0.98 1.905268,-2.16758 0.45722,-1.2458 -0.127355,-2.42477 -0.568658,-1.18633 -2.000744,-1.71192 -1.513587,-0.5555 -2.75504,0.0194 -1.241452,0.57485 -1.84278,2.17731 l -2.072762,-1.01173 q 1.105744,-2.32891 3.010965,-3.05649 1.909495,-0.73922 4.342877,0.15385 2.456669,0.90162 3.388805,2.78944 0.932135,1.88781 0.192893,3.90205 -0.376031,1.02458 -1.15839,1.8604 -0.782359,0.83583 -2.162039,1.57133 -1.368036,0.73977 -4.327559,1.82024 -2.467301,0.89121 -3.212259,1.26515 -0.740685,0.3623 -1.299355,0.80462 z m 4.459025,-5.86655 q 0.373882,-3.20286 1.253978,-5.073 0.893853,-1.88102 2.310984,-2.78944 1.429451,-0.90698 3.400442,-0.6769 1.453606,0.16969 2.480946,0.88897 1.028777,0.70696 1.613841,1.89905 0.586502,1.17976 0.807516,2.81633 0.222452,1.62425 -0.09103,4.30972 -0.371005,3.17823 -1.252539,5.06069 -0.880096,1.87013 -2.310985,2.78943 -1.417131,0.90842 -3.400441,0.6769 -2.611564,-0.30486 -3.883549,-2.3513 -1.523055,-2.46283 -0.929159,-7.55045 z m 2.278959,0.26603 q -0.51912,4.44705 0.343089,6.04609 0.875967,1.58815 2.403485,1.76646 1.527518,0.17832 2.734849,-1.17913 1.21965,-1.35602 1.737333,-5.79075 0.520558,-4.45937 -0.355408,-6.04752 -0.863648,-1.58672 -2.415803,-1.76791 -1.527519,-0.17831 -2.590093,1.00874 -1.338331,1.51697 -1.857452,5.96402 z m 24.011702,6.50046 0.25543,2.13035 -11.932408,1.43071 q -0.120599,-0.79747 0.07404,-1.57028 0.309453,-1.27373 1.165157,-2.57548 0.868018,-1.30323 2.57836,-3.08219 2.653691,-2.76645 3.519761,-4.29428 0.86459,-1.54015 0.71399,-2.7962 -0.15798,-1.31761 -1.213952,-2.10285 -1.045134,-0.79904 -2.559774,-0.61743 -1.600839,0.19194 -2.446177,1.26761 -0.845338,1.07567 -0.653899,2.77649 l -2.306169,0.0392 q -0.07166,-2.57708 1.295832,-4.09009 1.366018,-1.52532 3.939674,-1.83391 2.598285,-0.31153 4.285665,0.94762 1.68739,1.25914 1.94282,3.38949 0.12993,1.08365 -0.18788,2.1835 -0.31781,1.09986 -1.2134,2.38141 -0.88329,1.28008 -3.030089,3.58603 -1.79409,1.91392 -2.288194,2.58523 -0.495579,0.65899 -0.792656,1.30668 z m 2.77172,-3.30885 2.12904,-1.00056 q 0.83892,1.51439 2.02443,2.00094 1.19282,0.47061 2.44882,0.005 1.51184,-0.56023 2.13618,-2.08778 0.62434,-1.52754 -0.0738,-3.41153 -0.66365,-1.79096 -2.05896,-2.45107 -1.38368,-0.66442 -3.01182,-0.0611 -1.01178,0.37492 -1.65347,1.14176 -0.646,0.75521 -0.83969,1.66025 l -2.06021,0.47245 -1.59359,-9.36901 8.47796,-3.14157 0.74122,2.00029 -6.8033,2.52101 0.77917,4.9225 q 1.13864,-1.63877 2.82493,-2.26364 2.23288,-0.82741 4.34113,0.15048 2.10826,0.97789 3.00893,3.40847 0.85758,2.31429 0.13341,4.50047 -0.87269,2.67769 -3.71031,3.72919 -2.32591,0.86189 -4.28552,0.10667 -1.94799,-0.75952 -2.95456,-2.83342 z"
       id="text1"
       transform="matrix(0.99999571,0,0,1,2.4716476e-4,-4.285652e-6)"
       aria-label="2025" /><path
       d="m 62.791325,80.131006 -8.898213,7.570632 -11.966742,-14.065223 1.870325,-1.591279 10.552272,12.402711 7.027888,-5.979352 z m 7.704659,-3.55897 -6.518825,3.269038 -0.845057,-1.685139 2.161855,-1.084119 -6.588111,-13.137429 -2.161856,1.084119 -0.845057,-1.685138 6.518825,-3.269038 0.845058,1.685139 -2.161856,1.084119 6.588112,13.137429 2.161855,-1.084119 z M 87.259962,72.5142 84.272771,73.070639 72.639577,58.433525 75.664784,74.674089 73.40915,75.094257 70.027368,56.939452 73.770501,56.242201 84.384297,69.605784 81.622546,54.779563 83.87818,54.359395 Z m 20.188108,-6.497195 q -0.42727,2.481156 -1.86235,4.310535 -1.42286,1.831484 -3.41109,2.634326 -1.37929,0.555328 -2.978253,0.632356 -1.586738,0.07913 -4.092339,-0.352344 L 90.5084,72.450486 93.642394,54.25127 l 4.546749,0.782972 q 2.664497,0.458839 4.161617,1.119367 1.51144,0.65041 2.48348,1.509969 1.65786,1.481056 2.36421,3.591107 0.70636,2.110051 0.24962,4.76232 z m -2.52373,-0.472353 q 0.36833,-2.138927 -0.12466,-3.734011 -0.493,-1.595084 -1.82669,-2.693109 -0.97033,-0.796341 -2.14036,-1.236939 -1.167931,-0.452821 -2.854628,-0.743278 l -2.273374,-0.391487 -2.418375,14.043586 2.273375,0.391487 q 1.747809,0.300981 3.087588,0.267415 1.352001,-0.03146 2.559774,-0.540817 1.50613,-0.634164 2.42251,-1.936206 0.92861,-1.299936 1.29484,-3.426641 z m 23.18564,3.38662 q 0.34105,1.641838 -0.0609,3.493013 -0.39128,1.857482 -1.55181,3.822385 -1.16052,1.964903 -2.61532,3.20865 -1.43781,1.239376 -3.00002,1.713879 -1.61948,0.498297 -3.28668,0.248208 -1.65652,-0.243781 -3.37581,-1.259243 -1.67657,-0.990232 -2.72617,-2.359161 -1.03891,-1.362622 -1.37559,-2.987474 -0.33668,-1.624853 0.0483,-3.471656 0.39565,-1.840496 1.56249,-3.816078 1.14791,-1.943545 2.56873,-3.178549 1.42713,-1.245683 3.05922,-1.765338 1.55785,-0.491489 3.27407,-0.22685 1.7269,0.270946 3.37144,1.242257 1.70861,1.009154 2.73054,2.376147 1.03891,1.362622 1.37753,2.95981 z m -3.81256,6.016112 q 1.82909,-3.096857 1.43107,-5.59337 -0.3917,-2.507191 -2.79444,-3.926314 -2.42409,-1.431737 -4.80888,-0.564421 -2.3678,0.862944 -4.19689,3.959802 -1.84801,3.128894 -1.42233,5.627342 0.43198,2.487769 2.80268,3.88797 2.3707,1.400202 4.74724,0.571229 2.39353,-0.833343 4.24155,-3.962238 z m 11.65007,18.03291 q -0.83029,0.689105 -1.96625,0.971082 -1.12803,0.291521 -2.26932,0.06216 -1.24444,-0.256558 -2.43553,-0.992574 -1.18317,-0.726472 -2.37128,-2.158008 -1.27525,-1.536516 -2.01071,-3.00526 -0.72755,-1.4592 -1.21794,-3.19582 l 2.3668,-1.964346 0.1109,0.13361 q -0.002,1.822975 0.68349,3.639382 0.68555,1.816408 1.71525,3.057073 1.45742,1.756018 2.92384,2.182931 1.47434,0.436456 2.57185,-0.47443 0.94482,-0.784154 1.00525,-1.624065 0.0683,-0.830367 -0.46767,-1.98112 -0.40318,-0.874183 -0.97614,-1.816988 -0.56504,-0.933261 -1.1504,-2.026946 -1.16748,-2.2223 -0.96397,-3.938479 0.22097,-1.714556 1.77657,-3.005638 1.78465,-1.481181 4.17182,-0.915865 2.3967,0.557395 4.32145,2.876484 1.24355,1.498342 1.99486,2.986173 0.75132,1.487831 1.13139,2.800245 l -2.23319,1.853455 -0.11089,-0.13361 q 0.0139,-1.381498 -0.63857,-3.08033 -0.63497,-1.69721 -1.78348,-3.081028 -1.2594,-1.517429 -2.65758,-1.920386 -1.39027,-0.393414 -2.3828,0.430344 -0.88756,0.73663 -1.01317,1.614521 -0.12561,0.877892 0.56558,2.254445 0.37331,0.72168 1.11709,2.006237 0.74378,1.284557 1.19287,2.233466 0.89492,1.932746 0.71089,3.439353 -0.18404,1.506608 -1.71101,2.773928 z"
       id="text1-1"
       style="font-size:25.4px;letter-spacing:1.98702px;fill:none;stroke:#000000;stroke-width:0.264583"
       aria-label="LINDOS" /><path
       style="display:inline;fill:none;stroke:#000000;stroke-width:0.22;stroke-dasharray:none;stroke-opacity:1"
       d="m 91.115886,131.23333 c -1.600629,-4.63634 -5.445683,-8.95748 -10.803496,-8.75905 -5.357812,0.19844 -10.332276,5.2226 -8.742598,12.79395 2.621128,12.48396 19.266317,23.72662 19.266317,23.72662 -1.025427,-0.30702 -3.098887,-0.90251 -4.59179,-1.9691 l -1.620573,-1.1578 C 69.777932,145.2615 63.316913,140.68605 57.130047,130.05401 c -3.062852,-5.26346 -4.972663,-10.49089 -5.728651,-15.68013 -0.381276,-2.61718 -0.261263,-7.20213 0.245783,-9.38972 1.78139,-7.685645 6.940275,-13.211514 13.994626,-14.990145 2.153212,-0.5429 6.060729,-0.547054 8.217499,-0.0085 3.110676,0.776405 5.45031,1.929531 8.0808,3.982749 5.375858,3.809103 8.740193,7.624046 11.563834,13.427416 2.71608,5.56212 -3.027061,7.36493 -3.308181,7.66259 -0.132292,0.38034 1.86057,5.0269 2.997397,6.19516 2.232422,-0.19844 7.423266,-0.0107 10.484416,1.40854 -5.656151,-0.91571 -10.288736,2.52615 -12.561684,8.57136 z"
       id="path6"
       sodipodi:nodetypes="csssssscasccscccc"
       inkscape:label="left side heart" /><path
       style="display:inline;fill:none;stroke:#000000;stroke-width:0.22;stroke-dasharray:none;stroke-opacity:1"
       d="m 101.08676,93.284636 c 3.93209,-3.550855 10.41993,-4.53811 15.55951,-3.245093 1.60285,0.403251 4.51827,1.711132 5.82395,2.612674 3.9567,2.732024 6.77484,7.037097 8.00631,12.230693 0.41462,1.74863 0.45696,2.24964 0.45672,5.40497 -2.7e-4,3.88003 -0.21833,5.49708 -1.20758,8.95501 -3.59771,12.57583 -12.72455,22.62008 -29.46539,35.65625 -3.445779,2.68326 -8.06401,3.7715 -8.389368,3.76544 0,0 14.023678,-10.6947 17.067538,-18.30171 2.58069,-6.44948 3.02426,-14.21064 -4.55793,-17.36078 -3.7795,-2.20002 -10.507914,-1.70322 -10.987329,-1.79676 -0.844136,-0.16471 -3.227732,-5.4281 -3.092293,-5.97508 0.11693,-0.65481 7.111797,-2.36594 2.197425,-9.82234 0,0 3.702652,-7.711188 8.588437,-12.123274 z"
       id="path4"
       sodipodi:nodetypes="ssssscssscsccs"
       inkscape:label="right side heart" /><path
       style="display:inline;fill:none;stroke:#000000;stroke-width:0.280271;stroke-dasharray:none;stroke-opacity:1"
       d="m 89.746386,157.24288 c -6.651961,-4.87627 -11.231452,-9.56903 -14.028221,-14.37523 -1.384559,-2.37935 -2.247888,-4.7424 -2.589632,-7.08819 -0.172356,-1.1831 -0.118103,-3.25572 0.111106,-4.24462 0.805276,-3.47429 3.137347,-5.97225 6.326261,-6.77628 0.973357,-0.24542 2.739748,-0.2473 3.714714,-0.004 1.406179,0.35097 2.463809,0.87224 3.65292,1.80039 1.354964,1.05761 2.442895,2.47837 3.460106,4.51862 l 0.690999,1.38598 0.297328,-0.69667 c 0.392427,-0.91952 1.173188,-2.2926 1.730475,-3.0433 0.566532,-0.76315 1.792637,-1.98793 2.476325,-2.47366 2.130142,-1.51332 4.710323,-2.05144 7.033663,-1.46694 0.72457,0.18229 2.04248,0.77352 2.63271,1.18106 1.78863,1.23501 3.06257,3.18111 3.61925,5.52888 0.18743,0.79046 0.20657,1.01695 0.20646,2.44331 -1.2e-4,1.75397 -0.0987,2.48495 -0.54589,4.0481 -1.62633,5.6849 -6.45479,11.76531 -14.022479,17.6583 -1.557664,1.21297 -3.32076,2.46461 -3.467838,2.46187 -0.07239,-0.002 -0.65661,-0.3873 -1.298257,-0.85766 z"
       id="path4-9"
       inkscape:label="heart" /><path
       style="fill:none;stroke:#000000;stroke-width:0.629766;stroke-dasharray:none;stroke-opacity:1"
       id="path5"
       sodipodi:type="arc"
       sodipodi:cx="71.660561"
       sodipodi:cy="110.4632"
       sodipodi:rx="8.1968889"
       sodipodi:ry="8.1968889"
       sodipodi:start="3.9176355"
       sodipodi:end="3.9161128"
       sodipodi:open="true"
       sodipodi:arc-type="chord"
       d="m 65.810515,104.7216 a 8.1968889,8.1968889 0 0 1 11.589417,-0.11063 8.1968889,8.1968889 0 0 1 0.115044,11.58938 8.1968889,8.1968889 0 0 1 -11.58933,0.11945 8.1968889,8.1968889 0 0 1 -0.123867,-11.58928 z" /><path
       style="fill:none;stroke:#000000;stroke-width:0.629766;stroke-dasharray:none;stroke-opacity:1"
       id="path5-8"
       sodipodi:type="arc"
       sodipodi:cx="111.14386"
       sodipodi:cy="110.50736"
       sodipodi:rx="8.1968889"
       sodipodi:ry="8.1968889"
       sodipodi:start="3.9176355"
       sodipodi:end="3.9161128"
       sodipodi:open="true"
       sodipodi:arc-type="chord"
       d="m 105.29381,104.76576 a 8.1968889,8.1968889 0 0 1 11.58942,-0.11063 8.1968889,8.1968889 0 0 1 0.11504,11.58938 8.1968889,8.1968889 0 0 1 -11.58932,0.11945 8.1968889,8.1968889 0 0 1 -0.12387,-11.58928 z" /></g></svg>
