<?xml version="1.0" encoding="UTF-8" standalone="no"?>
<!-- Created with Inkscape (http://www.inkscape.org/) -->

<svg
   width="30.474672mm"
   height="30.444864mm"
   viewBox="0 0 30.474672 30.444864"
   version="1.1"
   id="svg1"
   xml:space="preserve"
   xmlns:inkscape="http://www.inkscape.org/namespaces/inkscape"
   xmlns:sodipodi="http://sodipodi.sourceforge.net/DTD/sodipodi-0.dtd"
   xmlns="http://www.w3.org/2000/svg"
   xmlns:svg="http://www.w3.org/2000/svg"><sodipodi:namedview
     id="namedview1"
     pagecolor="#ffffff"
     bordercolor="#000000"
     borderopacity="0.25"
     inkscape:showpageshadow="2"
     inkscape:pageopacity="0.0"
     inkscape:pagecheckerboard="0"
     inkscape:deskcolor="#d1d1d1"
     inkscape:document-units="mm" /><defs
     id="defs1" /><g
     inkscape:label="Layer 1"
     inkscape:groupmode="layer"
     id="layer1"
     transform="translate(-137.06566,-90.37042)"><path
       style="fill:#000000"
       d="m 150.69682,120.7179 c -10.58765,-1.1941 -16.79043,-12.59054 -11.97641,-22.004413 5.68857,-11.124093 21.48158,-11.124093 27.17016,0 5.43957,10.637163 -3.33302,23.342103 -15.19375,22.004413 z m 4.24614,-1.67467 c 16.07643,-3.27547 13.75721,-27.14541 -2.63747,-27.14541 -17.21073,0 -18.48313,24.90103 -1.397,27.33962 0.64284,0.0918 3.24598,-0.0336 4.03447,-0.19421 z m 0.13515,-3.99495 c -0.82179,-0.43383 -1.13029,-1.7631 -0.65902,-2.83964 0.41582,-0.94987 1.83835,-1.2646 2.67007,-0.59073 l 0.254,0.2058 -0.28533,0.29623 -0.28533,0.29624 -0.32932,-0.17165 c -0.52574,-0.27404 -0.99628,-0.0381 -1.16975,0.58657 -0.31112,1.12031 0.51836,1.98218 1.30908,1.3602 l 0.23586,-0.18553 0.27824,0.33142 c 0.56485,0.6728 -1.02805,1.23396 -2.0185,0.71109 z m -7.85262,-1.81446 v -1.905 l 0.4445,2.1e-4 0.4445,2.2e-4 0.635,1.05553 c 0.77943,1.29561 0.762,1.29556 0.762,0.002 v -1.05834 h 0.46567 0.46566 v 1.905 1.905 h -0.45618 -0.45617 l -0.62333,-1.05652 c -0.76496,-1.29661 -0.75032,-1.29658 -0.75032,-0.002 v 1.05833 h -0.46566 -0.46567 z m 4.064,0 v -1.905 h 1.27 1.27 v 0.42334 0.42333 h -0.762 -0.762 v 0.381 0.381 h 0.67196 0.67195 l -0.10388,0.35983 -0.10388,0.35984 -0.56808,0.025 -0.56807,0.025 v 0.71579 0.7158 h -0.508 -0.508 z m -2.68402,-4.48759 c -1.26844,-0.88845 1.47054,-3.2615 3.76085,-3.2584 2.03519,0.003 4.31526,1.45881 3.88751,2.48258 -0.25981,0.6218 -0.81846,0.65329 -1.54171,0.0869 -1.69388,-1.3265 -3.21802,-1.25112 -4.6955,0.23223 -0.62983,0.63233 -0.9927,0.74977 -1.41115,0.45668 z m -1.83812,-2.5039 c -0.94912,-1.12796 2.24688,-3.76109 5.02709,-4.14176 2.99923,-0.41065 7.87392,2.69406 5.78575,3.68496 -0.37411,0.17753 -0.64527,0.0878 -1.2361,-0.40913 -2.80101,-2.35576 -5.85346,-2.14446 -8.07677,0.55908 -0.55981,0.68074 -1.0935,0.78991 -1.49997,0.30685 z m -1.54603,-2.14701 c -0.79512,-0.35156 -0.57064,-1.10275 0.71788,-2.4022 4.03643,-4.070663 9.11628,-4.068313 13.49946,0.006 1.12771,1.04832 -0.039,2.07945 -1.21373,1.07269 -4.2284,-3.623833 -8.1967,-3.346243 -11.85042,0.82897 -0.50466,0.57669 -0.73933,0.67728 -1.15319,0.49429 z m -1.44528,-3.56247 c -2.63678,-1.126433 4.35397,-5.417697 8.82578,-5.417697 3.11448,0 8.43719,2.18612 8.70255,3.574274 0.21937,1.14758 -0.63811,1.2483 -2.11667,0.24864 -4.84204,-3.273734 -9.96089,-2.935492 -13.99421,0.9247 -0.78021,0.746723 -0.99754,0.849463 -1.41745,0.670083 z"
       id="path1" /></g></svg>
